<svg width="16" height="16" viewBox="0 0 16 16" fill="none" xmlns="http://www.w3.org/2000/svg">
<mask id="path-1-inside-1_6139_25030" fill="white">
<path fill-rule="evenodd" clip-rule="evenodd" d="M8 16C12.4183 16 16 12.4183 16 8C16 3.58172 12.4183 0 8 0C3.58172 0 0 3.58172 0 8C0 12.4183 3.58172 16 8 16ZM8.74074 8.98824L8.94444 4H7.04938L7.25926 8.98824H8.74074ZM7.27161 10.3406C7.09054 10.5235 7 10.7544 7 11.0331C7 11.3031 7.09054 11.5318 7.27161 11.7191C7.45679 11.9064 7.69959 12 8 12C8.30453 12 8.54733 11.9064 8.7284 11.7191C8.90946 11.5318 9 11.3031 9 11.0331C9 10.7544 8.90946 10.5235 8.7284 10.3406C8.54733 10.1533 8.30453 10.0597 8 10.0597C7.69959 10.0597 7.45679 10.1533 7.27161 10.3406Z"/>
</mask>
<path fill-rule="evenodd" clip-rule="evenodd" d="M8 16C12.4183 16 16 12.4183 16 8C16 3.58172 12.4183 0 8 0C3.58172 0 0 3.58172 0 8C0 12.4183 3.58172 16 8 16ZM8.74074 8.98824L8.94444 4H7.04938L7.25926 8.98824H8.74074ZM7.27161 10.3406C7.09054 10.5235 7 10.7544 7 11.0331C7 11.3031 7.09054 11.5318 7.27161 11.7191C7.45679 11.9064 7.69959 12 8 12C8.30453 12 8.54733 11.9064 8.7284 11.7191C8.90946 11.5318 9 11.3031 9 11.0331C9 10.7544 8.90946 10.5235 8.7284 10.3406C8.54733 10.1533 8.30453 10.0597 8 10.0597C7.69959 10.0597 7.45679 10.1533 7.27161 10.3406Z" fill="currentColor"/>
<path d="M8.94444 4L10.4432 4.0612L10.507 2.5H8.94444V4ZM8.74074 8.98824V10.4882H10.1807L10.2395 9.04945L8.74074 8.98824ZM7.04938 4V2.5H5.48494L5.55071 4.06306L7.04938 4ZM7.25926 8.98824L5.76059 9.0513L5.82104 10.4882H7.25926V8.98824ZM7.27161 10.3406L8.33766 11.3958L8.33822 11.3953L7.27161 10.3406ZM7.27161 11.7191L6.19321 12.7617L6.19907 12.7678L6.20499 12.7737L7.27161 11.7191ZM8.7284 11.7191L9.80679 12.7617L8.7284 11.7191ZM8.7284 10.3406L7.65 11.3832L7.65613 11.3896L7.66234 11.3958L8.7284 10.3406ZM14.5 8C14.5 11.5899 11.5899 14.5 8 14.5V17.5C13.2467 17.5 17.5 13.2467 17.5 8H14.5ZM8 1.5C11.5899 1.5 14.5 4.41015 14.5 8H17.5C17.5 2.75329 13.2467 -1.5 8 -1.5V1.5ZM1.5 8C1.5 4.41015 4.41015 1.5 8 1.5V-1.5C2.75329 -1.5 -1.5 2.75329 -1.5 8H1.5ZM8 14.5C4.41015 14.5 1.5 11.5899 1.5 8H-1.5C-1.5 13.2467 2.75329 17.5 8 17.5V14.5ZM7.44569 3.9388L7.24199 8.92704L10.2395 9.04945L10.4432 4.0612L7.44569 3.9388ZM7.04938 5.5H8.94444V2.5H7.04938V5.5ZM8.75793 8.92519L8.54806 3.93694L5.55071 4.06306L5.76059 9.0513L8.75793 8.92519ZM8.74074 7.48824H7.25926V10.4882H8.74074V7.48824ZM8.5 11.0331C8.5 11.058 8.49548 11.1192 8.46434 11.1986C8.43229 11.2803 8.38504 11.348 8.33766 11.3958L6.20555 9.28536C5.72205 9.77381 5.5 10.3953 5.5 11.0331H8.5ZM8.35 10.6765C8.38777 10.7155 8.43131 10.776 8.46256 10.8549C8.49342 10.9329 8.5 10.9976 8.5 11.0331H5.5C5.5 11.6764 5.73091 12.2835 6.19321 12.7617L8.35 10.6765ZM8 10.5C8.00625 10.5 8.05713 10.5012 8.13235 10.5302C8.21145 10.5608 8.28343 10.609 8.33822 10.6644L6.20499 12.7737C6.71235 13.2869 7.3602 13.5 8 13.5V10.5ZM7.65 10.6765C7.71079 10.6136 7.78857 10.5619 7.87073 10.5302C7.94816 10.5004 7.99856 10.5 8 10.5V13.5C8.63658 13.5 9.29517 13.2909 9.80679 12.7617L7.65 10.6765ZM7.5 11.0331C7.5 10.9976 7.50658 10.9329 7.53744 10.8549C7.56869 10.776 7.61223 10.7155 7.65 10.6765L9.80679 12.7617C10.2691 12.2835 10.5 11.6764 10.5 11.0331H7.5ZM7.66234 11.3958C7.61496 11.348 7.56771 11.2803 7.53566 11.1986C7.50452 11.1192 7.5 11.058 7.5 11.0331H10.5C10.5 10.3953 10.2779 9.77381 9.79445 9.28536L7.66234 11.3958ZM8 11.5597C7.99856 11.5597 7.94816 11.5593 7.87073 11.5294C7.78857 11.4977 7.71079 11.4461 7.65 11.3832L9.80679 9.29797C9.29517 8.7688 8.63658 8.55967 8 8.55967V11.5597ZM8.33822 11.3953C8.28343 11.4507 8.21145 11.4989 8.13235 11.5294C8.05713 11.5584 8.00625 11.5597 8 11.5597V8.55967C7.3602 8.55967 6.71235 8.77281 6.20499 9.28592L8.33822 11.3953Z" fill="currentColor" mask="url(#path-1-inside-1_6139_25030)"/>
</svg>
